<?xml version="1.0" encoding="UTF-8"?>
<svg version="1.1" xmlns="http://www.w3.org/2000/svg" width="495" height="106">
<path d="M0 0 C3.3 0 6.6 0 10 0 C12.69402972 6.79724421 14.72475441 13.71034045 16.6875 20.75 C17.16799805 22.43416016 17.16799805 22.43416016 17.65820312 24.15234375 C17.96048828 25.23128906 18.26277344 26.31023438 18.57421875 27.421875 C18.84838623 28.39737305 19.12255371 29.37287109 19.4050293 30.37792969 C20 33 20 33 20 37 C17.03 37 14.06 37 11 37 C10.67 34.36 10.34 31.72 10 29 C6.7 29 3.4 29 0 29 C-0.2165625 30.7015625 -0.2165625 30.7015625 -0.4375 32.4375 C-1 36 -1 36 -2 37 C-4.67058851 37.14115161 -7.32432238 37.04247107 -10 37 C-8.59219523 29.19818594 -6.60440018 21.62212722 -4.4375 14 C-3.96280273 12.30423828 -3.96280273 12.30423828 -3.47851562 10.57421875 C-1.13827481 2.27654962 -1.13827481 2.27654962 0 0 Z M4 10 C3.34 13.96 2.68 17.92 2 22 C3.98 22 5.96 22 8 22 C7.01 18.04 6.02 14.08 5 10 C4.67 10 4.34 10 4 10 Z " fill="#FFFFFF" transform="translate(129,33)"/>
<path d="M0 0 C0.66 0 1.32 0 2 0 C4.33333333 0 6.66666667 0 9 0 C9.12403121 4.18080601 9.21453601 8.36062502 9.2746582 12.54272461 C9.29973147 13.96381291 9.33379999 15.38477313 9.37719727 16.80541992 C9.43817858 18.85367462 9.46627762 20.90021883 9.48828125 22.94921875 C9.51446533 24.17987061 9.54064941 25.41052246 9.56762695 26.6784668 C8.84379364 30.91405917 7.30771328 32.35352182 4 35 C0.57289171 35.91032564 -2.53655416 35.71540029 -6 35 C-9.125 32.75 -9.125 32.75 -11 30 C-11 28.68 -11 27.36 -11 26 C-8.69 26 -6.38 26 -4 26 C-3.67 27.32 -3.34 28.64 -3 30 C-1.68 30 -0.36 30 1 30 C0.67 28.35 0.34 26.7 0 25 C-1.60875 25.12375 -1.60875 25.12375 -3.25 25.25 C-7 25 -7 25 -9.20703125 23.515625 C-11.7353297 19.96829559 -11.54774963 16.68948591 -11.4375 12.5 C-11.44458984 11.74074219 -11.45167969 10.98148438 -11.45898438 10.19921875 C-11.42159645 6.91483357 -11.2401443 4.44248163 -9.66015625 1.53125 C-6.41567843 -1.46130366 -4.00036568 -0.92316131 0 0 Z M-3 5 C-3 9.62 -3 14.24 -3 19 C-1.68 19 -0.36 19 1 19 C1 14.71 1 10.42 1 6 C-0.32 5.67 -1.64 5.34 -3 5 Z " fill="#FFFFFF" transform="translate(162,44)"/>
<path d="M0 0 C1.6730957 1.21411133 1.6730957 1.21411133 3 3 C3.34057617 5.4519043 3.34057617 5.4519043 3.29296875 8.32421875 C3.28330078 9.35224609 3.27363281 10.38027344 3.26367188 11.43945312 C3.23853516 12.51130859 3.21339844 13.58316406 3.1875 14.6875 C3.16719727 16.31268555 3.16719727 16.31268555 3.14648438 17.97070312 C3.11110643 20.64763405 3.06174189 23.32356838 3 26 C0.36 26 -2.28 26 -5 26 C-5 19.07 -5 12.14 -5 5 C-6.32 5 -7.64 5 -9 5 C-9 11.93 -9 18.86 -9 26 C-11.64 26 -14.28 26 -17 26 C-17 17.42 -17 8.84 -17 0 C-14.03 0 -11.06 0 -8 0 C-5.06317146 -1.46841427 -3.13175678 -0.76696084 0 0 Z " fill="#FFFFFF" transform="translate(244,44)"/>
<path d="M0 0 C3.4497515 3.58774156 2.63846938 7.99086811 2.5625 12.625 C-1.7275 12.625 -6.0175 12.625 -10.4375 12.625 C-9.7775 14.605 -9.1175 16.585 -8.4375 18.625 C-7.7775 18.295 -7.1175 17.965 -6.4375 17.625 C-6.1075 16.635 -5.7775 15.645 -5.4375 14.625 C-2.7975 14.625 -0.1575 14.625 2.5625 14.625 C2.31460718 18.26076129 1.93723207 20.18000567 -0.4375 23 C-4.512279 25.20717196 -7.89474776 25.46442161 -12.4375 24.625 C-15.30779869 22.83106332 -16.92881638 21.64236724 -18.4375 18.625 C-18.58693856 16.35755726 -18.65894902 14.0846825 -18.6875 11.8125 C-18.71328125 10.58917969 -18.7390625 9.36585937 -18.765625 8.10546875 C-18.41549229 4.39156104 -17.67172757 2.56987345 -15.4375 -0.375 C-10.57848777 -3.42923626 -4.85833883 -2.74060139 0 0 Z M-9.4375 3.625 C-9.7675 4.945 -10.0975 6.265 -10.4375 7.625 C-8.7875 7.625 -7.1375 7.625 -5.4375 7.625 C-5.7675 6.305 -6.0975 4.985 -6.4375 3.625 C-7.4275 3.625 -8.4175 3.625 -9.4375 3.625 Z " fill="#FFFFFF" transform="translate(220.4375,45.375)"/>
<path d="M0 0 C-0.33 1.98 -0.66 3.96 -1 6 C0.32 6 1.64 6 3 6 C3 7.65 3 9.3 3 11 C1.68 11 0.36 11 -1 11 C-1 15.95 -1 20.9 -1 26 C0.32 26 1.64 26 3 26 C3 27.98 3 29.96 3 32 C-4.25868726 32.48391248 -4.25868726 32.48391248 -7.25 30.53125 C-9.81164964 26.82600677 -9.43923494 23.63879488 -9.25 19.25 C-9.23195312 18.45722656 -9.21390625 17.66445313 -9.1953125 16.84765625 C-9.14833082 14.89791652 -9.07659044 12.94880122 -9 11 C-9.99 11 -10.98 11 -12 11 C-12 9.35 -12 7.7 -12 6 C-11.01 6 -10.02 6 -9 6 C-9 4.68 -9 3.36 -9 2 C-3.375 -1.125 -3.375 -1.125 0 0 Z " fill="#FFFFFF" transform="translate(261,38)"/>
<path d="M0 0 C2.64 0 5.28 0 8 0 C8 12.21 8 24.42 8 37 C5.36 37 2.72 37 0 37 C0 24.79 0 12.58 0 0 Z " fill="#FFFFFF" transform="translate(190,33)"/>
<path d="M0 0 C2.64 0 5.28 0 8 0 C8 8.58 8 17.16 8 26 C5.36 26 2.72 26 0 26 C0 17.42 0 8.84 0 0 Z " fill="#FFFFFF" transform="translate(176,44)"/>
<path d="M0 0 C0.99 0 1.98 0 3 0 C3.99 2.64 4.98 5.28 6 8 C6.66 5.36 7.32 2.72 8 0 C9.32 0 10.64 0 12 0 C12.99 2.64 13.98 5.28 15 8 C15.66 5.36 16.32 2.72 17 0 C17.99 0 18.98 0 20 0 C18.98408579 5.46864457 17.92908943 10.76390013 16 16 C15.01 16 14.02 16 13 16 C12.01 13.03 11.02 10.06 10 7 C9.01 9.97 8.02 12.94 7 16 C6.01 16 5.02 16 4 16 C2.68 10.72 1.36 5.44 0 0 Z " fill="#FFFFFF" transform="translate(445,54)"/>
<path d="M0 0 C1.95605469 0.17822266 1.95605469 0.17822266 4 1 C5.00488281 2.81005859 5.00488281 2.81005859 5.703125 5.1484375 C5.9609375 5.98890625 6.21875 6.829375 6.484375 7.6953125 C6.73703125 8.57960938 6.9896875 9.46390625 7.25 10.375 C7.518125 11.2515625 7.78625 12.128125 8.0625 13.03125 C10 19.49617347 10 19.49617347 10 23 C9.01 23 8.02 23 7 23 C6.67 21.02 6.34 19.04 6 17 C3.03 17 0.06 17 -3 17 C-3.33 18.98 -3.66 20.96 -4 23 C-4.99 23 -5.98 23 -7 23 C-2.91489362 2.91489362 -2.91489362 2.91489362 0 0 Z M1 4 C0.34 7.3 -0.32 10.6 -1 14 C0.98 14 2.96 14 5 14 C4.01 10.7 3.02 7.4 2 4 C1.67 4 1.34 4 1 4 Z " fill="#FFFFFF" transform="translate(412,47)"/>
<path d="M0 0 C0.99 0 1.98 0 3 0 C3 7.59 3 15.18 3 23 C-5 23 -5 23 -7 21.5625 C-8.4804678 17.76880126 -8.5703765 14.02226547 -8 10 C-6 7 -6 7 -4 6.25 C-2 6 -2 6 0 7 C0 4.69 0 2.38 0 0 Z M-4 9 C-5.23267348 10.00836062 -5.23267348 10.00836062 -5.09765625 12.06640625 C-5.08605469 12.89011719 -5.07445312 13.71382812 -5.0625 14.5625 C-5.05347656 15.38878906 -5.04445313 16.21507812 -5.03515625 17.06640625 C-5.02355469 17.70449219 -5.01195312 18.34257813 -5 19 C-3.05396726 19.59070014 -3.05396726 19.59070014 -1 20 C0.23267348 18.99163938 0.23267348 18.99163938 0.09765625 16.93359375 C0.08605469 16.10988281 0.07445312 15.28617188 0.0625 14.4375 C0.05347656 13.61121094 0.04445313 12.78492188 0.03515625 11.93359375 C0.02355469 11.29550781 0.01195312 10.65742187 0 10 C-1.94603274 9.40929986 -1.94603274 9.40929986 -4 9 Z " fill="#FFFFFF" transform="translate(394,47)"/>
<path d="M0 0 C2.7096202 1.56872748 3.42169132 2.42840954 4.375 5.375 C4.375 6.695 4.375 8.015 4.375 9.375 C1.405 9.375 -1.565 9.375 -4.625 9.375 C-4.295 10.365 -3.965 11.355 -3.625 12.375 C-1.60991642 13.10823796 -1.60991642 13.10823796 0.375 13.375 C0.705 12.385 1.035 11.395 1.375 10.375 C2.365 10.375 3.355 10.375 4.375 10.375 C3.75 12.8125 3.75 12.8125 2.375 15.375 C-0.5 16.4375 -0.5 16.4375 -3.625 16.375 C-6 14.9375 -6 14.9375 -7.625 12.375 C-8.17476461 8.51890459 -7.86172649 5.08517948 -6.625 1.375 C-4.0973274 -0.52075445 -3.1050411 -0.7392955 0 0 Z M-3.625 2.375 C-3.955 3.695 -4.285 5.015 -4.625 6.375 C-2.645 6.375 -0.665 6.375 1.375 6.375 C0.715 5.055 0.055 3.735 -0.625 2.375 C-1.615 2.375 -2.605 2.375 -3.625 2.375 Z " fill="#FFFFFF" transform="translate(380.625,53.625)"/>
<path d="M0 0 C3.65316671 1.24976756 4.78065836 1.67098753 7 5 C7.125 7.6875 7.125 7.6875 7 10 C4.03 10 1.06 10 -2 10 C-1.67 11.32 -1.34 12.64 -1 14 C0.97536745 13.65213292 0.97536745 13.65213292 3 13 C3.33 12.34 3.66 11.68 4 11 C4.99 11 5.98 11 7 11 C6.375 13.4375 6.375 13.4375 5 16 C2.0625 16.9375 2.0625 16.9375 -1 17 C-4 15 -4 15 -5 12 C-5.375 8.625 -5.375 8.625 -5 5 C-2.5 2.0625 -2.5 2.0625 0 0 Z M-1 3 C-1.33 4.32 -1.66 5.64 -2 7 C-0.02 7 1.96 7 4 7 C3.67 5.68 3.34 4.36 3 3 C1.68 3 0.36 3 -1 3 Z " fill="#FFFFFF" transform="translate(470,53)"/>
<path d="M0 0 C0.66 0 1.32 0 2 0 C2 18.15 2 36.3 2 55 C1.34 55 0.68 55 0 55 C0 36.85 0 18.7 0 0 Z " fill="#FFFFFF" transform="translate(292,26)"/>
<path d="M0 0 C0.99 0 1.98 0 3 0 C3.33 3.96 3.66 7.92 4 12 C4.99 12 5.98 12 7 12 C7.33 8.04 7.66 4.08 8 0 C8.99 0 9.98 0 11 0 C11 5.28 11 10.56 11 16 C3 16 3 16 1.01171875 14.91796875 C-0.51425923 12.02509158 -0.283744 9.55271483 -0.1875 6.3125 C-0.16042969 5.13300781 -0.13335937 3.95351563 -0.10546875 2.73828125 C-0.07066406 1.83464844 -0.03585937 0.93101563 0 0 Z " fill="#FFFFFF" transform="translate(342,54)"/>
<path d="M0 0 C0 4.95 0 9.9 0 15 C-0.99 15 -1.98 15 -3 15 C-3 10.38 -3 5.76 -3 1 C-3.99 1.33 -4.98 1.66 -6 2 C-6.33 6.29 -6.66 10.58 -7 15 C-7.99 15 -8.98 15 -10 15 C-10 9.72 -10 4.44 -10 -1 C-5 -2 -5 -2 0 0 Z " fill="#FFFFFF" transform="translate(433,55)"/>
<path d="M0 0 C0.763125 0.20625 1.52625 0.4125 2.3125 0.625 C2.6425 2.275 2.9725 3.925 3.3125 5.625 C2.3225 5.625 1.3325 5.625 0.3125 5.625 C-0.0175 4.965 -0.3475 4.305 -0.6875 3.625 C-1.3475 3.625 -2.0075 3.625 -2.6875 3.625 C-2.6875 4.285 -2.6875 4.945 -2.6875 5.625 C-1.6975 6.223125 -0.7075 6.82125 0.3125 7.4375 C3.3125 9.625 3.3125 9.625 3.875 12.25 C3.3125 14.625 3.3125 14.625 0.3125 16.625 C-2.875 16.25 -2.875 16.25 -5.6875 15.625 C-6.0175 13.975 -6.3475 12.325 -6.6875 10.625 C-5.6975 10.625 -4.7075 10.625 -3.6875 10.625 C-3.6875 11.615 -3.6875 12.605 -3.6875 13.625 C-2.3675 13.625 -1.0475 13.625 0.3125 13.625 C-1.02082095 9.62503714 -3.1832827 8.78717663 -6.6875 6.625 C-6.375 4.25 -6.375 4.25 -5.6875 1.625 C-2.6875 -0.375 -2.6875 -0.375 0 0 Z " fill="#FFFFFF" transform="translate(441.6875,53.375)"/>
<path d="M0 0 C3.125 0.25 3.125 0.25 5.0625 1.375 C6.125 3.25 6.125 3.25 6 6.3125 C5.125 9.25 5.125 9.25 2.125 11.25 C-1.03295845 11.09210208 -2.45492338 10.62942404 -4.8125 8.5 C-5.875 6.25 -5.875 6.25 -5.125 3.5625 C-3.35712084 0.29192355 -3.35712084 0.29192355 0 0 Z " fill="#FFFFFF" transform="translate(52.875,64.75)"/>
<path d="M0 0 C3.77126791 1.01180358 4.78414572 1.67621858 7 5 C6.77051008 7.4478925 6.14417022 8.79095318 4.75 10.8125 C3 12 3 12 0.5 11.9375 C-2.54571461 10.79535702 -3.60988681 9.94376912 -5 7 C-4.09021715 3.17891204 -3.32708333 2.21805555 0 0 Z " fill="#FFFFFF" transform="translate(35,47)"/>
<path d="M0 0 C3.06630664 0.8974556 4.73038808 1.73038808 7 4 C6.8125 7 6.8125 7 6 10 C3 12 3 12 0.5 11.875 C-2 11 -2 11 -3.9375 9.25 C-5 7 -5 7 -4.375 4.375 C-3 2 -3 2 0 0 Z " fill="#FFFFFF" transform="translate(52,30)"/>
<path d="M0 0 C3.0625 0.375 3.0625 0.375 5.0625 2 C6.0625 4.375 6.0625 4.375 5.25 7.625 C4.858125 8.5325 4.46625 9.44 4.0625 10.375 C1.3125 11.125 1.3125 11.125 -1.9375 11.375 C-4.375 9.75 -4.375 9.75 -5.9375 7.375 C-5.72346563 2.88027814 -4.69046776 0.59878312 0 0 Z " fill="#FFFFFF" transform="translate(40.9375,59.625)"/>
<path d="M0 0 C4.29 0 8.58 0 13 0 C13 0.99 13 1.98 13 3 C11.35 3 9.7 3 8 3 C8 9.6 8 16.2 8 23 C7.01 23 6.02 23 5 23 C5 16.4 5 9.8 5 3 C3.35 3 1.7 3 0 3 C0 2.01 0 1.02 0 0 Z " fill="#FFFFFF" transform="translate(322,47)"/>
<path d="M0 0 C2.375 1.375 2.375 1.375 4.375 4.375 C4.1875 6.9375 4.1875 6.9375 3.375 9.375 C0.375 11.375 0.375 11.375 -2.1875 11.125 C-4.625 10.375 -4.625 10.375 -6.625 8.375 C-7 5.4375 -7 5.4375 -6.625 2.375 C-4.34375926 -0.32869273 -3.47781905 -0.82805215 0 0 Z " fill="#FFFFFF" transform="translate(71.625,47.625)"/>
<path d="M0 0 C2.89443484 1.82806411 3.4391736 3.26714516 4.375 6.5 C2.725 8.15 1.075 9.8 -0.625 11.5 C-3.54017292 10.42598892 -5.40310176 9.72189824 -7.625 7.5 C-7.46437977 4.36790553 -6.9884031 2.90233915 -4.875 0.5625 C-2.625 -0.5 -2.625 -0.5 0 0 Z " fill="#FFFFFF" transform="translate(42.625,35.5)"/>
<path d="M0 0 C3.0625 0.375 3.0625 0.375 5 2.0625 C6.35219442 5.00551139 6.17318406 6.36028613 5.0625 9.375 C2.0625 11.375 2.0625 11.375 -0.5 11.125 C-2.9375 10.375 -2.9375 10.375 -4.9375 8.375 C-5.1875 5.375 -5.1875 5.375 -4.9375 2.375 C-2.9375 0.375 -2.9375 0.375 0 0 Z " fill="#FFFFFF" transform="translate(64.9375,59.625)"/>
<path d="M0 0 C3.65316671 1.24976756 4.78065836 1.67098753 7 5 C6.82565138 7.78957793 6.16438281 8.82387557 4.25 10.875 C2 12 2 12 -0.625 11.5 C-3.51943484 9.67193589 -4.0641736 8.23285484 -5 5 C-3.35 3.35 -1.7 1.7 0 0 Z " fill="#FFFFFF" transform="translate(64,35)"/>
<path d="M0 0 C1.11375 0.556875 1.11375 0.556875 2.25 1.125 C2.25 2.445 2.25 3.765 2.25 5.125 C1.26 5.125 0.27 5.125 -0.75 5.125 C-0.75 4.135 -0.75 3.145 -0.75 2.125 C-1.74 2.785 -2.73 3.445 -3.75 4.125 C-2.76 4.846875 -1.77 5.56875 -0.75 6.3125 C2.1791645 8.74425921 2.1791645 8.74425921 2.75 11.8125 C2.25 14.125 2.25 14.125 0.25 16.125 C-2.1875 16.5 -2.1875 16.5 -4.75 16.125 C-6.72610386 14.08075462 -7.75 13.0073175 -7.75 10.125 C-6.76 10.125 -5.77 10.125 -4.75 10.125 C-4.42 10.785 -4.09 11.445 -3.75 12.125 C-2.76 11.795 -1.77 11.465 -0.75 11.125 C-1.74 10.403125 -2.73 9.68125 -3.75 8.9375 C-6.69793497 6.5154877 -6.69793497 6.5154877 -7.125 3.3125 C-7.00125 2.590625 -6.8775 1.86875 -6.75 1.125 C-4.02098495 -0.69434337 -3.21400584 -1.02263822 0 0 Z " fill="#FFFFFF" transform="translate(361.75,53.875)"/>
<path d="M0 0 C0 1.32 0 2.64 0 4 C-0.99 3.67 -1.98 3.34 -3 3 C-3 2.34 -3 1.68 -3 1 C-3.99 1 -4.98 1 -6 1 C-5.31735356 4.21495376 -5.31735356 4.21495376 -2.4375 5.3125 C-1.633125 5.869375 -0.82875 6.42625 0 7 C0.4375 10.0625 0.4375 10.0625 0 13 C-2 15 -2 15 -4.5 15.25 C-7 15 -7 15 -9 13 C-9 11.68 -9 10.36 -9 9 C-8.01 9 -7.02 9 -6 9 C-6 9.99 -6 10.98 -6 12 C-5.01 11.67 -4.02 11.34 -3 11 C-2.67 10.34 -2.34 9.68 -2 9 C-3.175625 8.566875 -3.175625 8.566875 -4.375 8.125 C-7 7 -7 7 -9 5 C-8.625 1.875 -8.625 1.875 -8 -1 C-4.37673261 -2.2077558 -3.35853631 -1.54311128 0 0 Z " fill="#FFFFFF" transform="translate(495,55)"/>
<path d="M0 0 C0.99 0 1.98 0 3 0 C3 0.99 3 1.98 3 3 C3.66 3 4.32 3 5 3 C5 3.66 5 4.32 5 5 C4.34 5 3.68 5 3 5 C3 8.63 3 12.26 3 16 C3.99 16 4.98 16 6 16 C6 16.99 6 17.98 6 19 C4.33388095 19.042721 2.66617115 19.04063832 1 19 C0 18 0 18 -0.09765625 15.05859375 C-0.08605469 13.86363281 -0.07445312 12.66867188 -0.0625 11.4375 C-0.05347656 10.23996094 -0.04445313 9.04242188 -0.03515625 7.80859375 C-0.02355469 6.88175781 -0.01195312 5.95492187 0 5 C-0.99 4.67 -1.98 4.34 -3 4 C-2.01 3.67 -1.02 3.34 0 3 C0 2.01 0 1.02 0 0 Z " fill="#FFFFFF" transform="translate(367,51)"/>
<path d="M0 0 C0.33 1.32 0.66 2.64 1 4 C-0.32 4 -1.64 4 -3 4 C-3 8.29 -3 12.58 -3 17 C-3.99 17 -4.98 17 -6 17 C-6 11.72 -6 6.44 -6 1 C-4.02 0.67 -2.04 0.34 0 0 Z " fill="#FFFFFF" transform="translate(340,53)"/>
<path d="M0 0 C0.33 0.99 0.66 1.98 1 3 C-0.32 3.33 -1.64 3.66 -3 4 C-3 8.29 -3 12.58 -3 17 C-3.99 17 -4.98 17 -6 17 C-6 11.72 -6 6.44 -6 1 C-4.02 0.67 -2.04 0.34 0 0 Z " fill="#FFFFFF" transform="translate(485,53)"/>
<path d="M0 0 C2.93453261 0.36681658 3.86437246 0.86437246 6 3 C5.63318342 5.93453261 5.13562754 6.86437246 3 9 C0.06546739 8.63318342 -0.86437246 8.13562754 -3 6 C-2.63318342 3.06546739 -2.13562754 2.13562754 0 0 Z " fill="#FFFFFF" transform="translate(30,27)"/>
<path d="M0 0 C2.97 0.495 2.97 0.495 6 1 C6.625 3.375 6.625 3.375 7 6 C5 8 5 8 2.375 8.125 C1.59125 8.08375 0.8075 8.0425 0 8 C-1.125 5.6875 -1.125 5.6875 -2 3 C-1.34 2.01 -0.68 1.02 0 0 Z " fill="#FFFFFF" transform="translate(20,49)"/>
<path d="M0 0 C2.64 0 5.28 0 8 0 C8 2.31 8 4.62 8 7 C5.36 7 2.72 7 0 7 C0 4.69 0 2.38 0 0 Z " fill="#FFFFFF" transform="translate(176,33)"/>
<path d="M0 0 C2.6875 0.875 2.6875 0.875 5 2 C5 3.65 5 5.3 5 7 C2.6875 8.125 2.6875 8.125 0 9 C-0.99 8.34 -1.98 7.68 -3 7 C-3.375 4.5 -3.375 4.5 -3 2 C-2.01 1.34 -1.02 0.68 0 0 Z " fill="#FFFFFF" transform="translate(52,18)"/>
<path d="M0 0 C1.99954746 -0.04254356 4.00041636 -0.04080783 6 0 C7 1 7 1 7.1875 3.4375 C7 6 7 6 5 8 C2.375 7.625 2.375 7.625 0 7 C-1.125 2.25 -1.125 2.25 0 0 Z " fill="#FFFFFF" transform="translate(50,80)"/>
<path d="M0 0 C0.625 2.375 0.625 2.375 1 5 C-1 7 -1 7 -3.5625 7.1875 C-6 7 -6 7 -7 6 C-7.04080783 4.00041636 -7.04254356 1.99954746 -7 0 C-4.3333581 -1.33332095 -2.83319697 -0.67102033 0 0 Z " fill="#FFFFFF" transform="translate(87,50)"/>
<path d="M0 0 C2.25 0.25 2.25 0.25 4 1 C4.6875 3.3125 4.6875 3.3125 5 6 C3.5625 7.8125 3.5625 7.8125 2 9 C-0.4375 8.1875 -0.4375 8.1875 -3 7 C-3.33 6.01 -3.66 5.02 -4 4 C-2.25 1.9375 -2.25 1.9375 0 0 Z " fill="#FFFFFF" transform="translate(74,27)"/>
<path d="M0 0 C2.375 -0.125 2.375 -0.125 5 0 C5.66 0.66 6.32 1.32 7 2 C6.625 4.625 6.625 4.625 6 7 C3.6875 7.6875 3.6875 7.6875 1 8 C-0.8125 6.5625 -0.8125 6.5625 -2 5 C-1.34 3.35 -0.68 1.7 0 0 Z " fill="#FFFFFF" transform="translate(72,71)"/>
<path d="M0 0 C0.78375 0.04125 1.5675 0.0825 2.375 0.125 C3.035 1.775 3.695 3.425 4.375 5.125 C3.1875 6.6875 3.1875 6.6875 1.375 8.125 C-1.3125 7.8125 -1.3125 7.8125 -3.625 7.125 C-4.25 4.75 -4.25 4.75 -4.625 2.125 C-2.625 0.125 -2.625 0.125 0 0 Z " fill="#FFFFFF" transform="translate(31.625,70.875)"/>
<path d="M0 0 C2.125 0.9375 2.125 0.9375 4 2 C3.6875 3.9375 3.6875 3.9375 3 6 C2.01 6.33 1.02 6.66 0 7 C-0.99 6.34 -1.98 5.68 -3 5 C-2.625 3.0625 -2.625 3.0625 -2 1 C-1.34 0.67 -0.68 0.34 0 0 Z " fill="#FFFFFF" transform="translate(82,79)"/>
<path d="M0 0 C1.65 0 3.3 0 5 0 C5.625 1.875 5.625 1.875 6 4 C5.34 4.66 4.68 5.32 4 6 C1.9375 5.8125 1.9375 5.8125 0 5 C-0.33 4.01 -0.66 3.02 -1 2 C-0.67 1.34 -0.34 0.68 0 0 Z " fill="#FFFFFF" transform="translate(80,21)"/>
<path d="M0 0 C1.65 0.33 3.3 0.66 5 1 C4.67 2.65 4.34 4.3 4 6 C2.35 5.67 0.7 5.34 -1 5 C-0.67 3.35 -0.34 1.7 0 0 Z " fill="#FFFFFF" transform="translate(93,50)"/>
<path d="M0 0 C2.125 0.9375 2.125 0.9375 4 2 C3.6875 3.9375 3.6875 3.9375 3 6 C2.01 6.33 1.02 6.66 0 7 C-0.66 6.67 -1.32 6.34 -2 6 C-2 4.35 -2 2.7 -2 1 C-1.34 0.67 -0.68 0.34 0 0 Z " fill="#FFFFFF" transform="translate(23,79)"/>
<path d="M0 0 C1.67542976 0.28604898 3.34385343 0.61781233 5 1 C4.67 2.32 4.34 3.64 4 5 C2.68 5.33 1.36 5.66 0 6 C-0.38218767 4.34385343 -0.71395102 2.67542976 -1 1 C-0.67 0.67 -0.34 0.34 0 0 Z " fill="#FFFFFF" transform="translate(22,21)"/>
<path d="M0 0 C1.65 0.33 3.3 0.66 5 1 C5 2.32 5 3.64 5 5 C3.125 5.625 3.125 5.625 1 6 C0.34 5.34 -0.32 4.68 -1 4 C-0.625 1.875 -0.625 1.875 0 0 Z " fill="#FFFFFF" transform="translate(51,92)"/>
<path d="M0 0 C2 0.25 2 0.25 4 1 C4.33 1.99 4.66 2.98 5 4 C4.34 4.66 3.68 5.32 3 6 C0.875 5.625 0.875 5.625 -1 5 C-1 1 -1 1 0 0 Z " fill="#FFFFFF" transform="translate(10,50)"/>
<path d="M0 0 C2.0625 0.4375 2.0625 0.4375 4 1 C3.67 2.65 3.34 4.3 3 6 C1.35 5.67 -0.3 5.34 -2 5 C-1.125 1.125 -1.125 1.125 0 0 Z " fill="#FFFFFF" transform="translate(52,8)"/>
<path d="M0 0 C1.98 0.495 1.98 0.495 4 1 C4 1.99 4 2.98 4 4 C3.01 4.33 2.02 4.66 1 5 C0.34 4.67 -0.32 4.34 -1 4 C-0.67 2.68 -0.34 1.36 0 0 Z " fill="#FFFFFF" transform="translate(88,87)"/>
<path d="M0 0 C2.475 0.495 2.475 0.495 5 1 C4.67 1.99 4.34 2.98 4 4 C2.68 3.67 1.36 3.34 0 3 C0 2.01 0 1.02 0 0 Z " fill="#FFFFFF" transform="translate(87,15)"/>
<path d="M0 0 C0.99 0.33 1.98 0.66 3 1 C2.67 2.32 2.34 3.64 2 5 C1.01 4.67 0.02 4.34 -1 4 C-0.67 2.68 -0.34 1.36 0 0 Z " fill="#FFFFFF" transform="translate(16,87)"/>
<path d="M0 0 C1.98 0.495 1.98 0.495 4 1 C3.67 1.99 3.34 2.98 3 4 C1.68 3.67 0.36 3.34 -1 3 C-0.67 2.01 -0.34 1.02 0 0 Z " fill="#FFFFFF" transform="translate(103,51)"/>
<path d="M0 0 C1.32 0 2.64 0 4 0 C3.67 1.32 3.34 2.64 3 4 C2.01 4 1.02 4 0 4 C0 2.68 0 1.36 0 0 Z " fill="#FFFFFF" transform="translate(15,15)"/>
<path d="M0 0 C0.99 0.33 1.98 0.66 3 1 C3 1.99 3 2.98 3 4 C1.68 4 0.36 4 -1 4 C-0.67 2.68 -0.34 1.36 0 0 Z " fill="#FFFFFF" transform="translate(52,102)"/>
<path d="M0 0 C1.32 0.33 2.64 0.66 4 1 C3.67 1.99 3.34 2.98 3 4 C2.01 4 1.02 4 0 4 C0 2.68 0 1.36 0 0 Z " fill="#FFFFFF" transform="translate(0,51)"/>
<path d="M0 0 C1.32 0 2.64 0 4 0 C3.67 1.32 3.34 2.64 3 4 C2.01 3.67 1.02 3.34 0 3 C0 2.01 0 1.02 0 0 Z " fill="#FFFFFF" transform="translate(51,0)"/>
</svg>
